<svg width="24" height="20" viewBox="0 0 24 20" fill="none" xmlns="http://www.w3.org/2000/svg">
<path d="M12 -0.00378418C16.0499 -0.00378418 19.3567 3.19096 19.4958 7.24527L19.5 7.49622V11.5932L20.88 14.7492C20.9491 14.9071 20.9847 15.0776 20.9847 15.25C20.9847 15.9403 20.4251 16.5 19.7347 16.5L15 16.5015C15 18.1583 13.6569 19.5015 12 19.5015C10.4023 19.5015 9.09634 18.2526 9.00509 16.6778L8.99955 16.4992L4.27486 16.5C4.10353 16.5 3.93402 16.4648 3.77686 16.3965C3.14366 16.1215 2.85331 15.3852 3.12835 14.752L4.5 11.5941V7.49611C4.5006 3.34132 7.85209 -0.00378418 12 -0.00378418ZM13.4995 16.4992L10.5 16.5015C10.5 17.3299 11.1716 18.0015 12 18.0015C12.7797 18.0015 13.4204 17.4066 13.4931 16.6459L13.4995 16.4992ZM12 1.49622C8.67984 1.49622 6.00048 4.17047 6 7.49622V11.9058L4.65602 15H19.3525L18 11.9068L18.0001 7.50907L17.9964 7.28387C17.8853 4.0504 15.2416 1.49622 12 1.49622ZM21 6.24999H23C23.4142 6.24999 23.75 6.58578 23.75 6.99999C23.75 7.37969 23.4678 7.69348 23.1018 7.74315L23 7.74999H21C20.5858 7.74999 20.25 7.41421 20.25 6.99999C20.25 6.6203 20.5322 6.3065 20.8982 6.25684L21 6.24999ZM1 6.24999H3C3.41421 6.24999 3.75 6.58578 3.75 6.99999C3.75 7.37969 3.46785 7.69348 3.10177 7.74315L3 7.74999H1C0.585786 7.74999 0.25 7.41421 0.25 6.99999C0.25 6.6203 0.532154 6.3065 0.898229 6.25684L1 6.24999ZM22.6 0.549992C22.8259 0.851238 22.791 1.26714 22.5338 1.52699L22.45 1.59999L20.45 3.09999C20.1186 3.34852 19.6485 3.28136 19.4 2.94999C19.1741 2.64875 19.209 2.23285 19.4662 1.973L19.55 1.89999L21.55 0.399992C21.8814 0.151464 22.3515 0.218621 22.6 0.549992ZM2.45 0.399992L4.45 1.89999C4.78137 2.14852 4.84853 2.61862 4.6 2.94999C4.35147 3.28136 3.88137 3.34852 3.55 3.09999L1.55 1.59999C1.21863 1.35146 1.15147 0.881363 1.4 0.549992C1.64853 0.218621 2.11863 0.151464 2.45 0.399992Z" fill="white"/>
</svg>
