<?xml version="1.0" standalone="no"?>
<svg viewBox="0 0 200 200" xmlns="http://www.w3.org/2000/svg">
  <path fill="#FF0000" d="M36,-64.8C42.1,-58.8,39.4,-40,46.3,-27.1C53.2,-14.1,69.8,-7.1,72,1.3C74.2,9.6,62.1,19.3,53.5,29.2C44.8,39.1,39.6,49.3,31.2,59.7C22.9,70.1,11.5,80.7,2.7,76C-6.1,71.3,-12.1,51.4,-23.8,43C-35.6,34.5,-52.9,37.6,-58.1,32.3C-63.3,27.1,-56.3,13.5,-51.6,2.7C-46.9,-8.1,-44.3,-16.1,-43.9,-29.6C-43.5,-43.2,-45.2,-62.2,-38.2,-67.7C-31.3,-73.2,-15.6,-65.2,-0.3,-64.6C14.9,-64,29.9,-70.9,36,-64.8Z" transform="translate(100 100)" />
</svg>
