<?xml version="1.0" standalone="no"?>
<svg viewBox="0 0 200 200" xmlns="http://www.w3.org/2000/svg">
  <path fill="#FFFF33" d="M40,-62.5C50.3,-63.3,55.9,-49.5,54.8,-36.6C53.7,-23.7,45.9,-11.9,36.6,-5.3C27.4,1.2,16.7,2.3,18.7,16.7C20.7,31.1,35.3,58.7,34.2,58.4C33.2,58,16.6,29.7,2.1,26.1C-12.4,22.4,-24.9,43.5,-31.1,46.9C-37.3,50.3,-37.4,35.9,-45.3,25.2C-53.2,14.4,-69,7.2,-71.7,-1.6C-74.4,-10.3,-64,-20.6,-53.2,-26.5C-42.5,-32.4,-31.5,-33.9,-22.6,-33.9C-13.6,-33.8,-6.8,-32.3,4,-39.3C14.9,-46.2,29.7,-61.7,40,-62.5Z" transform="translate(100 100)" />
</svg>
