<svg width="40" height="40" viewBox="0 0 40 40" fill="none" xmlns="http://www.w3.org/2000/svg">
<rect width="40" height="40" rx="20" fill="#2C2C2E"/>
<path d="M18.7327 27.7907C19.0326 28.0764 19.5074 28.0649 19.7931 27.7649C20.0787 27.465 20.0672 26.9903 19.7673 26.7046L13.5159 20.75L28.25 20.75C28.6642 20.75 29 20.4142 29 20C29 19.5858 28.6642 19.25 28.25 19.25L13.5158 19.25L19.7673 13.2953C20.0672 13.0096 20.0787 12.5348 19.7931 12.2349C19.5074 11.935 19.0326 11.9234 18.7327 12.2091L11.3138 19.2758C11.1449 19.4367 11.0449 19.642 11.0139 19.8554C11.0048 19.9022 11 19.9505 11 20C11 20.0495 11.0048 20.098 11.014 20.1449C11.045 20.3581 11.145 20.5632 11.3138 20.724L18.7327 27.7907Z" fill="white"/>
</svg>
