<?xml version="1.0" standalone="no"?>
<svg viewBox="0 0 200 200" xmlns="http://www.w3.org/2000/svg">
  <path fill="#33FFBB" d="M34.4,-63.8C41.4,-55.5,41.9,-40,41.2,-28.1C40.5,-16.3,38.7,-8.1,46,4.2C53.3,16.6,69.7,33.1,66.3,37.9C62.9,42.6,39.6,35.5,25.3,34C11,32.4,5.5,36.4,-2.3,40.4C-10.1,44.5,-20.2,48.5,-29.7,47.2C-39.2,46,-48,39.4,-49.6,30.6C-51.2,21.8,-45.6,10.9,-49.2,-2.1C-52.9,-15.2,-65.9,-30.4,-62.8,-36.5C-59.6,-42.6,-40.4,-39.6,-27.2,-44.4C-14.1,-49.3,-7.1,-61.9,3.3,-67.6C13.7,-73.3,27.3,-72.2,34.4,-63.8Z" transform="translate(100 100)" />
</svg>
