<?xml version="1.0" standalone="no"?>
<svg viewBox="0 0 200 200" xmlns="http://www.w3.org/2000/svg">
  <path fill="#33DDFF" d="M21.6,-39.3C29.9,-32.7,39.7,-30.6,40.5,-24.8C41.3,-19,33,-9.5,26.1,-4C19.1,1.5,13.5,3,17.1,16.5C20.8,29.9,33.7,55.4,32.4,63.3C31.1,71.3,15.5,61.7,0,61.7C-15.5,61.6,-31,71,-36.9,65.7C-42.9,60.5,-39.3,40.6,-32.8,27.2C-26.3,13.8,-16.9,6.9,-12.1,2.7C-7.4,-1.4,-7.4,-2.9,-13.6,-15.8C-19.9,-28.7,-32.3,-53.1,-31.1,-63.7C-29.8,-74.3,-14.9,-71.2,-4.1,-64C6.7,-56.9,13.4,-45.8,21.6,-39.3Z" transform="translate(100 100)" />
</svg>
