<?xml version="1.0" standalone="no"?>
<svg viewBox="0 0 200 200" xmlns="http://www.w3.org/2000/svg">
  <path fill="#FF0000" d="M36.8,-56.3C48.9,-56.7,60.7,-49.3,67.5,-38.6C74.3,-28,76,-14,77.7,1C79.3,15.9,81,31.8,72,38.6C63,45.5,43.3,43.2,29.5,41.9C15.8,40.7,7.9,40.4,-3.5,46.5C-14.9,52.5,-29.8,65,-40.4,64.4C-51,63.9,-57.3,50.3,-65.2,37.4C-73.2,24.5,-82.7,12.2,-86.4,-2.1C-90.1,-16.5,-88,-33.1,-79.3,-44.6C-70.5,-56.1,-55.2,-62.6,-40.9,-60.9C-26.6,-59.3,-13.3,-49.5,-0.5,-48.6C12.3,-47.8,24.7,-55.9,36.8,-56.3Z" transform="translate(100 100)" />
</svg>
