<?xml version="1.0" standalone="no"?>
<svg viewBox="0 0 200 200" xmlns="http://www.w3.org/2000/svg">
  <path fill="#33FFBB" d="M14.8,-23.8C22.5,-21.2,34.4,-24,34.5,-20.9C34.5,-17.8,22.7,-8.9,27.2,2.6C31.6,14.1,52.3,28.1,56.7,38.9C61.1,49.6,49.2,57.1,37,59.6C24.8,62.2,12.4,59.8,4,52.9C-4.5,46.1,-9,34.7,-21.8,32.6C-34.6,30.4,-55.6,37.3,-57,33.4C-58.4,29.5,-40,14.8,-34.7,3.1C-29.4,-8.6,-37.1,-17.3,-39.5,-27.7C-41.9,-38.1,-39,-50.3,-31.5,-53C-24.1,-55.7,-12,-49,-4.2,-41.7C3.6,-34.3,7.1,-26.4,14.8,-23.8Z" transform="translate(100 100)" />
</svg>
