<?xml version="1.0" standalone="no"?>
<svg viewBox="0 0 200 200" xmlns="http://www.w3.org/2000/svg">
  <path fill="#FF0000" d="M28,-57.7C32.4,-45.9,29.6,-30.6,38.3,-20.5C47,-10.3,67.3,-5.1,77.1,5.7C87,16.5,86.4,33,76.1,40.5C65.9,48,45.9,46.5,31.6,38.3C17.3,30.1,8.7,15.2,1.2,13.1C-6.3,11.1,-12.6,22,-26.9,30.1C-41.1,38.3,-63.2,43.8,-71.2,38.3C-79.2,32.8,-73.1,16.4,-66.7,3.7C-60.2,-9,-53.5,-18,-43.9,-20.7C-34.3,-23.4,-21.8,-19.8,-14,-29.7C-6.2,-39.5,-3.1,-62.8,4.3,-70.3C11.8,-77.8,23.5,-69.5,28,-57.7Z" transform="translate(100 100)" />
</svg>
