<?xml version="1.0" standalone="no"?>
<svg viewBox="0 0 200 200" xmlns="http://www.w3.org/2000/svg">
  <path fill="#FFFF33" d="M33.2,-54.4C46.9,-49.5,64.7,-48.6,67.4,-40.2C70,-31.8,57.5,-15.9,57.5,0C57.6,15.9,70.2,31.9,65,35.8C59.7,39.7,36.6,31.5,22.8,37.4C9,43.3,4.5,63.3,-0.9,64.8C-6.2,66.3,-12.5,49.4,-25.8,43.2C-39.2,37.1,-59.7,41.7,-68.9,36.3C-78.1,30.9,-75.9,15.4,-70.6,3.1C-65.2,-9.2,-56.6,-18.4,-50,-28.4C-43.4,-38.3,-38.9,-48.9,-30.9,-57.1C-22.9,-65.4,-11.5,-71.3,-0.9,-69.7C9.7,-68.2,19.4,-59.3,33.2,-54.4Z" transform="translate(100 100)" />
</svg>
