<svg width="20" height="20" viewBox="0 0 20 20" fill="none" xmlns="http://www.w3.org/2000/svg">
<path d="M12.8578 10.1578C13.4177 10.7312 13.7345 11.4258 13.964 12.3864L14.0634 12.8425L14.2425 13.7889C14.3315 14.2337 14.4004 14.4807 14.4967 14.6966C14.7974 15.3704 15.3268 16.0609 16.0922 16.7626C16.3975 17.0425 16.4181 17.5169 16.1382 17.8222C15.8583 18.1276 15.3839 18.1482 15.0786 17.8683C14.1712 17.0365 13.5182 16.1848 13.1269 15.3079C12.9781 14.9743 12.8874 14.6574 12.7805 14.128L12.5701 13.0274L12.5574 12.9672C12.3767 12.1182 12.1534 11.5835 11.7846 11.2057C11.0719 10.4758 9.42792 10.6687 8.98797 11.3644C8.42615 12.2527 8.28283 13.7603 8.72895 15.28C9.07362 16.4541 9.53095 17.6096 10.1013 18.7467C10.287 19.1169 10.1374 19.5676 9.7672 19.7533C9.39695 19.9391 8.94626 19.7895 8.76054 19.4192C8.15029 18.2026 7.65988 16.9636 7.28968 15.7025C6.72819 13.7898 6.91376 11.8378 7.72022 10.5626C8.67329 9.05565 11.4621 8.72839 12.8578 10.1578ZM10.4922 12.4731C10.9062 12.4594 11.2529 12.7838 11.2667 13.1978C11.3182 14.745 11.8214 16.2407 12.7108 17.5019L12.9073 17.7685L13.2074 18.1585C13.4601 18.4868 13.3988 18.9577 13.0706 19.2103C12.7722 19.44 12.3558 19.4102 12.0928 19.1563L12.0188 19.0734L11.7186 18.6834C10.5155 17.1203 9.83309 15.2191 9.76752 13.2477C9.75377 12.8337 10.0782 12.4869 10.4922 12.4731ZM6.78288 7.39052C8.89472 5.82691 11.6572 5.91177 13.5154 7.10619C14.4453 7.70393 15.1496 8.40094 15.6178 9.19956C15.8273 9.55689 15.7074 10.0164 15.3501 10.2259C14.9927 10.4354 14.5332 10.3155 14.3237 9.95819C13.9821 9.3754 13.4457 8.84457 12.7043 8.36801C11.3418 7.49222 9.25298 7.42805 7.67546 8.59605C6.03689 9.80926 5.34703 11.8873 5.55247 14.0779C5.66752 15.3048 6.03725 16.5452 6.66567 17.8018C6.85093 18.1722 6.7008 18.6228 6.33032 18.808C5.95985 18.9933 5.50934 18.8431 5.32407 18.4727C4.61499 17.0548 4.19197 15.6356 4.05902 14.218C3.8087 11.5488 4.66974 8.9551 6.78288 7.39052ZM15.9626 11.6916C16.3763 11.6703 16.7289 11.9884 16.7502 12.402C16.7812 13.0051 16.9302 13.4982 17.1916 13.8949C17.4111 14.228 17.6062 14.4204 17.7551 14.4946L17.816 14.5193C18.2125 14.6391 18.4367 15.0577 18.3168 15.4542C18.197 15.8507 17.7784 16.0749 17.3819 15.9551C16.8354 15.7898 16.3653 15.367 15.9391 14.7202C15.5234 14.0895 15.2963 13.338 15.2522 12.4791C15.2309 12.0654 15.549 11.7128 15.9626 11.6916ZM8.51049 4.10211C8.6805 4.47983 8.51212 4.92385 8.1344 5.09386C6.29423 5.9221 4.94021 7.10239 4.05073 8.64253C2.93749 10.5701 2.6372 12.8235 2.88644 14.7226C2.94034 15.1333 2.6511 15.5099 2.24041 15.5638C1.82972 15.6177 1.45309 15.3285 1.39919 14.9178C1.11039 12.7171 1.45385 10.1398 2.75179 7.89236C3.80361 6.07113 5.3998 4.67974 7.51875 3.72602C7.89647 3.55601 8.34049 3.7244 8.51049 4.10211ZM10.8542 3.31502C12.6841 3.35252 14.5056 4.19338 16.3129 5.80138C18.1358 7.4233 19.2343 9.62798 19.6072 12.3816C19.6628 12.792 19.3751 13.1699 18.9646 13.2254C18.5542 13.281 18.1764 12.9933 18.1208 12.5829C17.7942 10.1713 16.8596 8.29561 15.3158 6.92203C13.7564 5.53453 12.2609 4.84416 10.8234 4.8147C10.4093 4.80622 10.0805 4.46362 10.089 4.04949C10.0975 3.63537 10.4401 3.30653 10.8542 3.31502ZM3.98269 3.32942C4.25817 3.63874 4.23075 4.11282 3.92143 4.38831C3.6533 4.62711 3.37195 4.91215 3.07817 5.24332C2.80183 5.55483 2.51874 5.95921 2.23185 6.45591C2.02468 6.81459 1.56597 6.93741 1.20728 6.73024C0.848602 6.52307 0.725778 6.06435 0.932949 5.70567C1.26742 5.1266 1.60747 4.64085 1.95606 4.2479C2.28721 3.87461 2.60952 3.54807 2.9238 3.26816C3.23312 2.99267 3.7072 3.0201 3.98269 3.32942ZM10.5682 0.363493C12.7609 0.466202 14.5974 1.0657 16.098 2.22441C16.4258 2.47758 16.4864 2.94857 16.2332 3.27642C15.98 3.60426 15.509 3.6648 15.1812 3.41164C13.9359 2.45001 12.3957 1.95074 10.4981 1.86185C8.59489 1.7727 7.03644 2.14593 5.78343 2.84088C5.39947 3.05384 4.96861 2.94727 4.75183 2.59432C4.53505 2.24136 4.63248 1.77795 4.99839 1.56271C6.53411 0.659367 8.38109 0.261043 10.5682 0.363493Z" fill="white"/>
</svg>
