<?xml version="1.0" standalone="no"?>
<svg viewBox="0 0 200 200" xmlns="http://www.w3.org/2000/svg">
  <path fill="#33FFBB" d="M43.5,-59.5C47.9,-56.6,37.4,-32.6,41.6,-14.7C45.8,3.2,64.7,15.2,64.5,22.5C64.2,29.8,44.8,32.4,30.9,33.2C16.9,34.1,8.5,33.2,-4.6,39.6C-17.7,45.9,-35.5,59.6,-38.9,55.3C-42.2,51,-31.3,28.8,-36.1,12.2C-40.9,-4.5,-61.5,-15.6,-67.2,-29.2C-72.9,-42.8,-63.7,-58.9,-50,-58.9C-36.3,-58.9,-18.2,-42.8,0.7,-43.7C19.5,-44.6,39,-62.5,43.5,-59.5Z" transform="translate(100 100)" />
</svg>
