<?xml version="1.0" standalone="no"?>
<svg viewBox="0 0 200 200" xmlns="http://www.w3.org/2000/svg">
  <path fill="#33DDFF" d="M24.7,-53.4C26.3,-41.8,18.1,-23.8,22.9,-13.8C27.7,-3.8,45.7,-1.9,57.9,7.1C70.1,16,76.7,32,69.5,38C62.4,44,41.6,40,27.7,34.1C13.8,28.2,6.9,20.4,0.1,20.2C-6.7,20.1,-13.4,27.5,-27,33.2C-40.6,39,-61,43,-61.7,37.2C-62.3,31.4,-43.2,15.7,-43.4,-0.2C-43.7,-16,-63.4,-32,-67,-45.1C-70.5,-58.1,-57.8,-68.2,-44,-72.6C-30.1,-77.1,-15.1,-76,-1.8,-72.9C11.5,-69.8,23.1,-64.9,24.7,-53.4Z" transform="translate(100 100)" />
</svg>
